<svg id="Woden_Revamped_rotating_1" data-name="Woden Revamped rotating 1" xmlns="http://www.w3.org/2000/svg" width="83.874" height="83.385" viewBox="0 0 83.874 83.385">
  <path id="Path_2" data-name="Path 2" d="M377.145,695.5a1.585,1.585,0,1,0-2,1,1.545,1.545,0,0,0,2-1m-15.322.784,2.276.051a3.38,3.38,0,0,0,.153-6.756l-2.277-.052Zm1.166-1,.107-4.724,1.09.025a2.37,2.37,0,0,1-.107,4.723Zm-9.37-4.592,1.3,6.632,4.331-.848-.2-1-3.23.633-.372-1.9,2.927-.573-.192-.982-2.928.573-.343-1.751,3.23-.633-.194-.993Zm-3.821,3.375a1.076,1.076,0,0,1-.691,1.493l-1.338.54-.847-2.093,1.338-.541a1.073,1.073,0,0,1,1.538.6m-.3,2.4a2.127,2.127,0,1,0-1.589-3.928l-2.418.978,2.534,6.266,1.06-.429-.945-2.337Zm-6.378,6.3-1.281-4.873,2.754,3.808.891-.644-3.96-5.477-1.034.748,1.393,5.4-4.713-3-1.06.767,3.96,5.476.882-.638-2.754-3.809,4.262,2.718Zm-10.851,2.806,2.51.894-1.186,1.418Zm-1.419-.483,3.519,6.329.741-.887-.99-1.732,1.66-1.985,1.88.669.749-.9-6.852-2.344Zm1.7,9.586-4.738-5.455-.554,1.027,3.733,4.188-5.551-.816-.569,1.057,7.162.958Zm-10.07,7.629L329,724.1l1.169-4.257-.987-.271-.873,3.173-1.868-.512.79-2.878-.965-.265-.791,2.877-1.719-.472.871-3.174-.976-.269Zm.038,7.625.1-1.44c.054-.758.491-1.157,1.118-1.113s1,.5.948,1.26l-.1,1.44Zm3.077-.6,2.868-1.684.093-1.3-2.918,1.756a1.837,1.837,0,0,0-1.82-1.861c-1.318-.094-2.084.755-2.184,2.15l-.185,2.6,6.742.48.081-1.14-2.735-.195Zm-3.3,10.5.288,1.061,4.525-1.227-3.671,4.373.282,1.04,6.523-1.769-.288-1.062-4.748,1.289,3.842-4.626-.23-.849Zm4.984,12.9,5.993-3.123-2.039-3.914-.907.472,1.521,2.92-1.719.9-1.38-2.646-.887.462,1.38,2.646-1.584.825-1.521-2.919-.9.467Zm10.867,3.238-1.468-1.743a3.381,3.381,0,0,0-5.17,4.353l1.467,1.743Zm-1.52-.217-3.613,3.042-.7-.834a2.369,2.369,0,0,1,3.613-3.041ZM338.8,761.1c.862-1.142,2.109-1.5,3.059-.782s.941,2.006.079,3.149-2.1,1.5-3.049.789-.95-2.013-.089-3.156m-.923-.7a3.141,3.141,0,1,0,4.6-.9,3.2,3.2,0,0,0-4.6.9m10.205,10.015,3.1-4.1-.779,5.064,1.037.431.984-6.91-.966-.4-3.052,3.966.673-4.953-.977-.406-4.2,5.578,1.017.422,3.036-4.128-.727,5.086Zm11.333-.725a1.585,1.585,0,1,0,1.693-1.458,1.546,1.546,0,0,0-1.693,1.458m12.831-.433,2.465,2.511,1.208-.3-3.343-3.36-.645-2.619-1.1.27.643,2.619-1.413,4.53,1.176-.289Zm10.766-.76-2.832-6.136-4.007,1.849.428.928,2.989-1.379.812,1.761-2.708,1.249.419.909,2.708-1.25.748,1.62-2.988,1.38.423.918Zm2.874-9.988-3.558,2.574.6.828,2.632-1.9,3.361,4.648.926-.67Zm4.835-4.9-2.983,3.224.751.7,2.206-2.384,4.21,3.9.777-.84Zm7.684-1.872-2.629-.439.919-1.6Zm1.481.226-4.577-5.612-.574,1,1.28,1.531-1.285,2.246-1.968-.327-.58,1.013,7.157,1.1Zm-3.284-9.1,5.622,4.54.365-1.109-4.41-3.468,5.608-.171.375-1.14-7.219.313Zm8.721-9.673-.028-1.1-4.688.121,4.6-3.38-.028-1.077-6.756.173.028,1.1,4.919-.127-4.829,3.584.022.879Zm-1.759-13.714L397,721.088l1.054,4.286.993-.244-.786-3.2,1.883-.463.712,2.9.972-.239-.713-2.9,1.733-.426.786,3.2.983-.242Zm-9.748-5.738,1,2.045a3.38,3.38,0,0,0,6.066-2.978l-1-2.045Zm1.422.576,4.241-2.082.48.979a2.369,2.369,0,0,1-4.24,2.082Zm-.8-5.693c-1.118.894-2.414.931-3.158,0s-.417-2.177.7-3.071,2.408-.941,3.152-.012.423,2.186-.694,3.081m.722.9a3.14,3.14,0,1,0-4.678-.259,3.2,3.2,0,0,0,4.678.259m-7.582-12.257-3.943,3.3,1.9-4.758-.913-.654-2.518,6.51.851.608,3.868-3.175-1.773,4.675.86.614,5.347-4.486-.9-.64-3.889,3.336,1.856-4.79Z" transform="translate(-321.451 -689.529)" fill="#fc785c"/>
</svg>
