<svg id="Stamp_Duty_Saving" data-name="Stamp Duty Saving" xmlns="http://www.w3.org/2000/svg" xmlns:xlink="http://www.w3.org/1999/xlink" width="179.142" height="179.142" viewBox="0 0 179.142 179.142">
  <defs>
    <clipPath id="clip-path">
      <rect id="Rectangle_37" data-name="Rectangle 37" width="179.142" height="179.142" fill="none"/>
    </clipPath>
  </defs>
  <g id="Group_83" data-name="Group 83" clip-path="url(#clip-path)">
    <path id="Path_124" data-name="Path 124" d="M179.142,89.571A89.571,89.571,0,1,1,89.571,0a89.571,89.571,0,0,1,89.571,89.571" fill="#fc785c"/>
    <path id="Path_125" data-name="Path 125" d="M348.569,189.4l-2.04-1.57a78.356,78.356,0,0,0,16.385-48.212,79.226,79.226,0,0,0-18.062-50.317l1.985-1.638a81.8,81.8,0,0,1,18.652,51.955,80.909,80.909,0,0,1-16.92,49.782" transform="translate(-196.884 -50.051)" fill="#241f20"/>
    <path id="Path_126" data-name="Path 126" d="M41.476,189.4a80.911,80.911,0,0,1-16.92-49.782A81.8,81.8,0,0,1,43.208,87.667l1.985,1.638A79.225,79.225,0,0,0,27.13,139.622a78.358,78.358,0,0,0,16.385,48.212Z" transform="translate(-14.02 -50.051)" fill="#241f20"/>
    <path id="Path_127" data-name="Path 127" d="M98.323,62.455a3.037,3.037,0,0,1-1.861-1.37L94.107,57.8a3.055,3.055,0,0,1-.709-2.221A2.863,2.863,0,0,1,96.5,53.35a3.055,3.055,0,0,1,1.874,1.388l2.355,3.289a3.02,3.02,0,0,1,.691,2.208,2.832,2.832,0,0,1-3.1,2.22m2.118-2.362a2.3,2.3,0,0,0-.533-1.458L97.6,55.415a2.592,2.592,0,0,0-1.259-1.06,1.4,1.4,0,0,0-1.266.259,1.438,1.438,0,0,0-.686,1.129A2.624,2.624,0,0,0,95,57.278L97.3,60.5q1.161,1.623,2.474.682a1.438,1.438,0,0,0,.663-1.088" transform="translate(-53.309 -30.438)" fill="#241f20"/>
    <path id="Path_128" data-name="Path 128" d="M98.323,62.455a3.037,3.037,0,0,1-1.861-1.37L94.107,57.8a3.055,3.055,0,0,1-.709-2.221A2.863,2.863,0,0,1,96.5,53.35a3.055,3.055,0,0,1,1.874,1.388l2.355,3.289a3.02,3.02,0,0,1,.691,2.208,2.832,2.832,0,0,1-3.1,2.22Zm2.118-2.362a2.3,2.3,0,0,0-.533-1.458L97.6,55.415a2.592,2.592,0,0,0-1.259-1.06,1.4,1.4,0,0,0-1.266.259,1.438,1.438,0,0,0-.686,1.129A2.624,2.624,0,0,0,95,57.278L97.3,60.5q1.161,1.623,2.474.682A1.438,1.438,0,0,0,100.441,60.093Z" transform="translate(-53.309 -30.438)" fill="none" stroke="#000" stroke-miterlimit="10" stroke-width="1"/>
    <path id="Path_129" data-name="Path 129" d="M113.915,37.794l3.052,9.389-.958.531-5.265-6.428,2.673,7.865-.959.531-6.368-7.551.934-.517,5.177,6.444-2.757-7.786,1.179-.653,5.153,6.458-2.745-7.792Z" transform="translate(-60.569 -21.578)" fill="#241f20"/>
    <path id="Path_130" data-name="Path 130" d="M113.915,37.794l3.052,9.389-.958.531-5.265-6.428,2.673,7.865-.959.531-6.368-7.551.934-.517,5.177,6.444-2.757-7.786,1.179-.653,5.153,6.458-2.745-7.792Z" transform="translate(-60.569 -21.578)" fill="none" stroke="#000" stroke-miterlimit="10" stroke-width="1"/>
    <path id="Path_131" data-name="Path 131" d="M135.009,30.589l3.67,8.969-.949.389-5.887-5.635,2.819,6.89-.949.388-3.67-8.969.949-.388,5.892,5.647-2.824-6.9Z" transform="translate(-74.245 -17.464)" fill="#241f20"/>
    <path id="Path_132" data-name="Path 132" d="M135.009,30.589l3.67,8.969-.949.389-5.887-5.635,2.819,6.89-.949.388-3.67-8.969.949-.388,5.892,5.647-2.824-6.9Z" transform="translate(-74.245 -17.464)" fill="none" stroke="#000" stroke-miterlimit="10" stroke-width="1"/>
    <path id="Path_133" data-name="Path 133" d="M149.927,27.075l.981,3.239,2.715-.823.269.887-2.715.823,1.03,3.4,3.159-.956.265.874-4.127,1.25-2.81-9.275,4.126-1.25.265.874Z" transform="translate(-84.893 -14.412)" fill="#241f20"/>
    <path id="Path_134" data-name="Path 134" d="M149.927,27.075l.981,3.239,2.715-.823.269.887-2.715.823,1.03,3.4,3.159-.956.265.874-4.127,1.25-2.81-9.275,4.126-1.25.265.874Z" transform="translate(-84.893 -14.412)" fill="none" stroke="#000" stroke-miterlimit="10" stroke-width="1"/>
    <path id="Path_135" data-name="Path 135" d="M168.417,27.606l-1.527.315.856,4.155-1,.207-1.957-9.492,2.5-.516a2.335,2.335,0,0,1,1.959.285,3.1,3.1,0,0,1,.988,1.9q.42,2.036-.887,2.793l2.566,3.96-1.073.222Zm-1.708-.565,1.486-.306a1.272,1.272,0,0,0,.973-.667,2.232,2.232,0,0,0,.064-1.4,2.333,2.333,0,0,0-.6-1.275,1.268,1.268,0,0,0-1.172-.224l-1.485.306Z" transform="translate(-94.08 -12.67)" fill="#241f20"/>
    <path id="Path_136" data-name="Path 136" d="M168.417,27.606l-1.527.315.856,4.155-1,.207-1.957-9.492,2.5-.516a2.335,2.335,0,0,1,1.959.285,3.1,3.1,0,0,1,.988,1.9q.42,2.036-.887,2.793l2.566,3.96-1.073.222Zm-1.708-.565,1.486-.306a1.272,1.272,0,0,0,.973-.667,2.232,2.232,0,0,0,.064-1.4,2.333,2.333,0,0,0-.6-1.275,1.268,1.268,0,0,0-1.172-.224l-1.485.306Z" transform="translate(-94.08 -12.67)" fill="none" stroke="#000" stroke-miterlimit="10" stroke-width="1"/>
    <path id="Path_137" data-name="Path 137" d="M192.949,27.786a3.042,3.042,0,0,1-.854-2.148l-.256-4.036a3.054,3.054,0,0,1,.574-2.26,2.862,2.862,0,0,1,3.813-.242,3.054,3.054,0,0,1,.855,2.169l.256,4.037a3.017,3.017,0,0,1-.583,2.239,2.834,2.834,0,0,1-3.806.242M196,26.9a2.293,2.293,0,0,0,.319-1.519l-.251-3.953a2.588,2.588,0,0,0-.507-1.565,1.4,1.4,0,0,0-1.211-.451,1.436,1.436,0,0,0-1.18.6,2.612,2.612,0,0,0-.3,1.623l.251,3.953q.126,1.991,1.738,1.888A1.44,1.44,0,0,0,196,26.9" transform="translate(-109.519 -10.553)" fill="#241f20"/>
    <path id="Path_138" data-name="Path 138" d="M192.949,27.786a3.042,3.042,0,0,1-.854-2.148l-.256-4.036a3.054,3.054,0,0,1,.574-2.26,2.862,2.862,0,0,1,3.813-.242,3.054,3.054,0,0,1,.855,2.169l.256,4.037a3.017,3.017,0,0,1-.583,2.239,2.834,2.834,0,0,1-3.806.242ZM196,26.9a2.293,2.293,0,0,0,.319-1.519l-.251-3.953a2.588,2.588,0,0,0-.507-1.565,1.4,1.4,0,0,0-1.211-.451,1.436,1.436,0,0,0-1.18.6,2.612,2.612,0,0,0-.3,1.623l.251,3.953q.126,1.991,1.738,1.888A1.44,1.44,0,0,0,196,26.9Z" transform="translate(-109.519 -10.553)" fill="none" stroke="#000" stroke-miterlimit="10" stroke-width="1"/>
    <path id="Path_139" data-name="Path 139" d="M210.777,27.343a3,3,0,0,1-.654-2.222l.14-4.043a3.039,3.039,0,0,1,.8-2.186A2.567,2.567,0,0,1,213,18.222a2.606,2.606,0,0,1,1.857.766,2.819,2.819,0,0,1,.656,2.145l0,.127-1.025-.036,0-.1a2.1,2.1,0,0,0-.378-1.475,1.483,1.483,0,0,0-1.128-.5,1.465,1.465,0,0,0-1.238.47,2.573,2.573,0,0,0-.463,1.593l-.137,3.959q-.069,1.993,1.559,2.049a1.48,1.48,0,0,0,1.167-.423,2.06,2.06,0,0,0,.47-1.4l0-.127,1,.035-.005.14a2.8,2.8,0,0,1-.788,2.074,2.552,2.552,0,0,1-1.877.631,2.59,2.59,0,0,1-1.9-.8" transform="translate(-119.962 -10.402)" fill="#241f20"/>
    <path id="Path_140" data-name="Path 140" d="M210.777,27.343a3,3,0,0,1-.654-2.222l.14-4.043a3.039,3.039,0,0,1,.8-2.186A2.567,2.567,0,0,1,213,18.222a2.606,2.606,0,0,1,1.857.766,2.819,2.819,0,0,1,.656,2.145l0,.127-1.025-.036,0-.1a2.1,2.1,0,0,0-.378-1.475,1.483,1.483,0,0,0-1.128-.5,1.465,1.465,0,0,0-1.238.47,2.573,2.573,0,0,0-.463,1.593l-.137,3.959q-.069,1.993,1.559,2.049a1.48,1.48,0,0,0,1.167-.423,2.06,2.06,0,0,0,.47-1.4l0-.127,1,.035-.005.14a2.8,2.8,0,0,1-.788,2.074,2.552,2.552,0,0,1-1.877.631A2.59,2.59,0,0,1,210.777,27.343Z" transform="translate(-119.962 -10.402)" fill="none" stroke="#000" stroke-miterlimit="10" stroke-width="1"/>
    <path id="Path_141" data-name="Path 141" d="M228.179,28.653a3,3,0,0,1-.434-2.275l.534-4.009a3.04,3.04,0,0,1,1.009-2.1,2.565,2.565,0,0,1,2-.478,2.6,2.6,0,0,1,1.773.944,2.816,2.816,0,0,1,.444,2.2l-.017.125-1.016-.136.013-.1a2.1,2.1,0,0,0-.232-1.5,1.482,1.482,0,0,0-1.074-.61,1.467,1.467,0,0,0-1.279.346,2.579,2.579,0,0,0-.616,1.54l-.523,3.926q-.263,1.977,1.352,2.192a1.478,1.478,0,0,0,1.2-.308,2.055,2.055,0,0,0,.605-1.35l.016-.125.989.132-.018.139a2.8,2.8,0,0,1-.987,1.987,2.548,2.548,0,0,1-1.93.444,2.587,2.587,0,0,1-1.81-.985" transform="translate(-129.999 -11.282)" fill="#241f20"/>
    <path id="Path_142" data-name="Path 142" d="M228.179,28.653a3,3,0,0,1-.434-2.275l.534-4.009a3.04,3.04,0,0,1,1.009-2.1,2.565,2.565,0,0,1,2-.478,2.6,2.6,0,0,1,1.773.944,2.816,2.816,0,0,1,.444,2.2l-.017.125-1.016-.136.013-.1a2.1,2.1,0,0,0-.232-1.5,1.482,1.482,0,0,0-1.074-.61,1.467,1.467,0,0,0-1.279.346,2.579,2.579,0,0,0-.616,1.54l-.523,3.926q-.263,1.977,1.352,2.192a1.478,1.478,0,0,0,1.2-.308,2.055,2.055,0,0,0,.605-1.35l.016-.125.989.132-.018.139a2.8,2.8,0,0,1-.987,1.987,2.548,2.548,0,0,1-1.93.444A2.587,2.587,0,0,1,228.179,28.653Z" transform="translate(-129.999 -11.282)" fill="none" stroke="#000" stroke-miterlimit="10" stroke-width="1"/>
    <path id="Path_143" data-name="Path 143" d="M245.942,31.767a2.28,2.28,0,0,1-.666-1.094,2.758,2.758,0,0,1-.006-1.386l1.65-7.028,1,.234-1.637,6.974a1.829,1.829,0,0,0,.1,1.329,1.586,1.586,0,0,0,2.148.5,1.833,1.833,0,0,0,.679-1.139l1.638-6.974,1,.235-1.65,7.028a2.551,2.551,0,0,1-1.113,1.665,2.455,2.455,0,0,1-1.94.273,2.623,2.623,0,0,1-1.2-.613" transform="translate(-139.981 -12.708)" fill="#241f20"/>
    <path id="Path_144" data-name="Path 144" d="M245.942,31.767a2.28,2.28,0,0,1-.666-1.094,2.758,2.758,0,0,1-.006-1.386l1.65-7.028,1,.234-1.637,6.974a1.829,1.829,0,0,0,.1,1.329,1.586,1.586,0,0,0,2.148.5,1.833,1.833,0,0,0,.679-1.139l1.638-6.974,1,.235-1.65,7.028a2.551,2.551,0,0,1-1.113,1.665,2.455,2.455,0,0,1-1.94.273A2.623,2.623,0,0,1,245.942,31.767Z" transform="translate(-139.981 -12.708)" fill="none" stroke="#000" stroke-miterlimit="10" stroke-width="1"/>
    <path id="Path_145" data-name="Path 145" d="M267.743,29.133a3.218,3.218,0,0,1-.112,2.193q-.886,2.621-3.241,1.825l-1.411-.477-1.313,3.886-.971-.328,3.1-9.181,2.381.8a2.336,2.336,0,0,1,1.563,1.277m-1.876,3.094A2.174,2.174,0,0,0,266.673,31a2.289,2.289,0,0,0,.115-1.5,1.418,1.418,0,0,0-.953-.8l-1.357-.459-1.205,3.566,1.357.459a1.443,1.443,0,0,0,1.237-.041" transform="translate(-148.837 -15.444)" fill="#241f20"/>
    <path id="Path_146" data-name="Path 146" d="M267.743,29.133a3.218,3.218,0,0,1-.112,2.193q-.886,2.621-3.241,1.825l-1.411-.477-1.313,3.886-.971-.328,3.1-9.181,2.381.8A2.336,2.336,0,0,1,267.743,29.133Zm-1.876,3.094A2.174,2.174,0,0,0,266.673,31a2.289,2.289,0,0,0,.115-1.5,1.418,1.418,0,0,0-.953-.8l-1.357-.459-1.205,3.566,1.357.459A1.443,1.443,0,0,0,265.866,32.227Z" transform="translate(-148.837 -15.444)" fill="none" stroke="#000" stroke-miterlimit="10" stroke-width="1"/>
    <rect id="Rectangle_32" data-name="Rectangle 32" width="9.691" height="1.011" transform="matrix(0.386, -0.922, 0.922, 0.386, 118.381, 23.147)" fill="#241f20"/>
    <rect id="Rectangle_33" data-name="Rectangle 33" width="9.691" height="1.011" transform="matrix(0.386, -0.922, 0.922, 0.386, 118.381, 23.147)" fill="none" stroke="#000" stroke-miterlimit="10" stroke-width="1"/>
    <path id="Path_147" data-name="Path 147" d="M288.137,38.189l-1.512,3.029,2.538,1.267-.414.829-2.538-1.267-1.588,3.179,2.953,1.475-.408.817-3.858-1.926,4.329-8.671,3.857,1.926-.408.817Z" transform="translate(-161.748 -21.079)" fill="#241f20"/>
    <path id="Path_148" data-name="Path 148" d="M288.137,38.189l-1.512,3.029,2.538,1.267-.414.829-2.538-1.267-1.588,3.179,2.953,1.475-.408.817-3.858-1.926,4.329-8.671,3.857,1.926-.408.817Z" transform="translate(-161.748 -21.079)" fill="none" stroke="#000" stroke-miterlimit="10" stroke-width="1"/>
    <path id="Path_149" data-name="Path 149" d="M300.78,50.654l-1.325-.821-2.233,3.606-.871-.54,5.1-8.24,2.173,1.346a2.334,2.334,0,0,1,1.227,1.552,3.1,3.1,0,0,1-.591,2.063q-1.095,1.766-2.564,1.419l-.857,4.639-.932-.576Zm-.852-1.585,1.29.8a1.277,1.277,0,0,0,1.166.185,2.237,2.237,0,0,0,1.006-.971,2.344,2.344,0,0,0,.441-1.338,1.273,1.273,0,0,0-.7-.969l-1.29-.8Z" transform="translate(-169.193 -25.497)" fill="#241f20"/>
    <path id="Path_150" data-name="Path 150" d="M300.78,50.654l-1.325-.821-2.233,3.606-.871-.54,5.1-8.24,2.173,1.346a2.334,2.334,0,0,1,1.227,1.552,3.1,3.1,0,0,1-.591,2.063q-1.095,1.766-2.564,1.419l-.857,4.639-.932-.576Zm-.852-1.585,1.29.8a1.277,1.277,0,0,0,1.166.185,2.237,2.237,0,0,0,1.006-.971,2.344,2.344,0,0,0,.441-1.338,1.273,1.273,0,0,0-.7-.969l-1.29-.8Z" transform="translate(-169.193 -25.497)" fill="none" stroke="#000" stroke-miterlimit="10" stroke-width="1"/>
    <path id="Path_151" data-name="Path 151" d="M311.57,63.016a3.042,3.042,0,0,1,.7-2.038l.8.6a2.178,2.178,0,0,0-.5,1.393A1.492,1.492,0,0,0,313.225,64a1.42,1.42,0,0,0,1.161.341,1.971,1.971,0,0,0,1.089-.823,1.778,1.778,0,0,0,.44-1.129,3.084,3.084,0,0,0-.5-1.31l-.313-.518a3.422,3.422,0,0,1-.558-1.637,2.453,2.453,0,0,1,.577-1.554,2.622,2.622,0,0,1,1.667-1.1,2.409,2.409,0,0,1,1.886.545,2.356,2.356,0,0,1,1.006,1.58,2.865,2.865,0,0,1-.621,1.987l-.773-.585q.946-1.415-.174-2.262a1.371,1.371,0,0,0-1.128-.325,1.762,1.762,0,0,0-1.011.732,1.629,1.629,0,0,0-.39,1.062,2.759,2.759,0,0,0,.478,1.242l.324.526a3.4,3.4,0,0,1,.563,1.676,2.716,2.716,0,0,1-.65,1.675,2.753,2.753,0,0,1-1.717,1.175,2.511,2.511,0,0,1-1.943-.6,2.407,2.407,0,0,1-1.072-1.691" transform="translate(-177.877 -32.112)" fill="#241f20"/>
    <path id="Path_152" data-name="Path 152" d="M311.57,63.016a3.042,3.042,0,0,1,.7-2.038l.8.6a2.178,2.178,0,0,0-.5,1.393A1.492,1.492,0,0,0,313.225,64a1.42,1.42,0,0,0,1.161.341,1.971,1.971,0,0,0,1.089-.823,1.778,1.778,0,0,0,.44-1.129,3.084,3.084,0,0,0-.5-1.31l-.313-.518a3.422,3.422,0,0,1-.558-1.637,2.453,2.453,0,0,1,.577-1.554,2.622,2.622,0,0,1,1.667-1.1,2.409,2.409,0,0,1,1.886.545,2.356,2.356,0,0,1,1.006,1.58,2.865,2.865,0,0,1-.621,1.987l-.773-.585q.946-1.415-.174-2.262a1.371,1.371,0,0,0-1.128-.325,1.762,1.762,0,0,0-1.011.732,1.629,1.629,0,0,0-.39,1.062,2.759,2.759,0,0,0,.478,1.242l.324.526a3.4,3.4,0,0,1,.563,1.676,2.716,2.716,0,0,1-.65,1.675,2.753,2.753,0,0,1-1.717,1.175,2.511,2.511,0,0,1-1.943-.6A2.407,2.407,0,0,1,311.57,63.016Z" transform="translate(-177.877 -32.112)" fill="none" stroke="#000" stroke-miterlimit="10" stroke-width="1"/>
    <path id="Path_153" data-name="Path 153" d="M89.07,335.617l-2.463,2.644,2.188,2.039-.666.715-2.189-2.039-3.18,3.412-.791-.737,6.967-7.475,3.325,3.1-.656.7Z" transform="translate(-46.798 -190.789)" fill="#241f20"/>
    <path id="Path_154" data-name="Path 154" d="M89.07,335.617l-2.463,2.644,2.188,2.039-.666.715-2.189-2.039-3.18,3.412-.791-.737,6.967-7.475,3.325,3.1-.656.7Z" transform="translate(-46.798 -190.789)" fill="none" stroke="#000" stroke-miterlimit="10" stroke-width="1"/>
    <rect id="Rectangle_34" data-name="Rectangle 34" width="10.218" height="1.066" transform="translate(40.76 155.818) rotate(-51.322)" fill="#241f20"/>
    <rect id="Rectangle_35" data-name="Rectangle 35" width="10.218" height="1.066" transform="translate(40.76 155.818) rotate(-51.322)" fill="none" stroke="#000" stroke-miterlimit="10" stroke-width="1"/>
    <path id="Path_155" data-name="Path 155" d="M107.729,355.912l-1.363-.919-2.5,3.709-.9-.6,5.708-8.474,2.235,1.506a2.463,2.463,0,0,1,1.23,1.686,3.27,3.27,0,0,1-.707,2.149q-1.224,1.817-2.759,1.391l-1.092,4.853-.958-.645Zm-.833-1.7,1.326.894a1.344,1.344,0,0,0,1.221.242,2.348,2.348,0,0,0,1.1-.982,2.463,2.463,0,0,0,.518-1.392,1.338,1.338,0,0,0-.7-1.049l-1.327-.893Z" transform="translate(-58.788 -199.608)" fill="#241f20"/>
    <path id="Path_156" data-name="Path 156" d="M107.729,355.912l-1.363-.919-2.5,3.709-.9-.6,5.708-8.474,2.235,1.506a2.463,2.463,0,0,1,1.23,1.686,3.27,3.27,0,0,1-.707,2.149q-1.224,1.817-2.759,1.391l-1.092,4.853-.958-.645Zm-.833-1.7,1.326.894a1.344,1.344,0,0,0,1.221.242,2.348,2.348,0,0,0,1.1-.982,2.463,2.463,0,0,0,.518-1.392,1.338,1.338,0,0,0-.7-1.049l-1.327-.893Z" transform="translate(-58.788 -199.608)" fill="none" stroke="#000" stroke-miterlimit="10" stroke-width="1"/>
    <path id="Path_157" data-name="Path 157" d="M120.567,368.263a3.213,3.213,0,0,1,.393-2.24l.929.493a2.3,2.3,0,0,0-.286,1.533,1.568,1.568,0,0,0,.854.964,1.5,1.5,0,0,0,1.265.16,2.072,2.072,0,0,0,1-1.039,1.872,1.872,0,0,0,.269-1.249,3.258,3.258,0,0,0-.737-1.279l-.412-.487a3.6,3.6,0,0,1-.855-1.611,2.58,2.58,0,0,1,.34-1.714,2.76,2.76,0,0,1,1.552-1.423,2.534,2.534,0,0,1,2.054.252,2.485,2.485,0,0,1,1.312,1.476,3.022,3.022,0,0,1-.314,2.172l-.9-.479q.749-1.632-.56-2.326a1.446,1.446,0,0,0-1.228-.149,1.864,1.864,0,0,0-.93.931,1.721,1.721,0,0,0-.227,1.171,2.9,2.9,0,0,0,.705,1.213l.425.494a3.577,3.577,0,0,1,.868,1.651,2.859,2.859,0,0,1-.4,1.851,2.9,2.9,0,0,1-1.59,1.512,2.646,2.646,0,0,1-2.123-.3,2.539,2.539,0,0,1-1.4-1.581" transform="translate(-68.795 -205.678)" fill="#241f20"/>
    <path id="Path_158" data-name="Path 158" d="M120.567,368.263a3.213,3.213,0,0,1,.393-2.24l.929.493a2.3,2.3,0,0,0-.286,1.533,1.568,1.568,0,0,0,.854.964,1.5,1.5,0,0,0,1.265.16,2.072,2.072,0,0,0,1-1.039,1.872,1.872,0,0,0,.269-1.249,3.258,3.258,0,0,0-.737-1.279l-.412-.487a3.6,3.6,0,0,1-.855-1.611,2.58,2.58,0,0,1,.34-1.714,2.76,2.76,0,0,1,1.552-1.423,2.534,2.534,0,0,1,2.054.252,2.485,2.485,0,0,1,1.312,1.476,3.022,3.022,0,0,1-.314,2.172l-.9-.479q.749-1.632-.56-2.326a1.446,1.446,0,0,0-1.228-.149,1.864,1.864,0,0,0-.93.931,1.721,1.721,0,0,0-.227,1.171,2.9,2.9,0,0,0,.705,1.213l.425.494a3.577,3.577,0,0,1,.868,1.651,2.859,2.859,0,0,1-.4,1.851,2.9,2.9,0,0,1-1.59,1.512,2.646,2.646,0,0,1-2.123-.3A2.539,2.539,0,0,1,120.567,368.263Z" transform="translate(-68.795 -205.678)" fill="none" stroke="#000" stroke-miterlimit="10" stroke-width="1"/>
    <path id="Path_159" data-name="Path 159" d="M145.04,368.356l-1.942-.806-3.548,8.548-.985-.408,3.548-8.548-1.942-.807.369-.889,4.869,2.021Z" transform="translate(-79.109 -208.641)" fill="#241f20"/>
    <path id="Path_160" data-name="Path 160" d="M145.04,368.356l-1.942-.806-3.548,8.548-.985-.408,3.548-8.548-1.942-.807.369-.889,4.869,2.021Z" transform="translate(-79.109 -208.641)" fill="none" stroke="#000" stroke-miterlimit="10" stroke-width="1"/>
    <path id="Path_161" data-name="Path 161" d="M166.921,374.943l-2.484,9.912-1.049-.263,1.148-4.582-3.045-.764-1.149,4.583-1.048-.262,2.484-9.912,1.049.262-1.1,4.4,3.045.763,1.1-4.4Z" transform="translate(-90.945 -213.327)" fill="#241f20"/>
    <path id="Path_162" data-name="Path 162" d="M166.921,374.943l-2.484,9.912-1.049-.263,1.148-4.582-3.045-.764-1.149,4.583-1.048-.262,2.484-9.912,1.049.262-1.1,4.4,3.045.763,1.1-4.4Z" transform="translate(-90.945 -213.327)" fill="none" stroke="#000" stroke-miterlimit="10" stroke-width="1"/>
    <path id="Path_163" data-name="Path 163" d="M180.033,387.457a3.2,3.2,0,0,1-.436-2.4l.575-4.226a3.219,3.219,0,0,1,1.063-2.216,3.018,3.018,0,0,1,3.991.543,3.217,3.217,0,0,1,.433,2.419l-.575,4.226A3.18,3.18,0,0,1,184.018,388a2.987,2.987,0,0,1-3.984-.542m3.334-.279a2.426,2.426,0,0,0,.645-1.5l.563-4.138a2.732,2.732,0,0,0-.2-1.724,1.478,1.478,0,0,0-1.158-.717,1.517,1.517,0,0,0-1.343.37,2.761,2.761,0,0,0-.645,1.616l-.563,4.138q-.283,2.084,1.4,2.313a1.516,1.516,0,0,0,1.3-.354" transform="translate(-102.507 -215.86)" fill="#241f20"/>
    <path id="Path_164" data-name="Path 164" d="M180.033,387.457a3.2,3.2,0,0,1-.436-2.4l.575-4.226a3.219,3.219,0,0,1,1.063-2.216,3.018,3.018,0,0,1,3.991.543,3.217,3.217,0,0,1,.433,2.419l-.575,4.226A3.18,3.18,0,0,1,184.018,388a2.987,2.987,0,0,1-3.984-.542Zm3.334-.279a2.426,2.426,0,0,0,.645-1.5l.563-4.138a2.732,2.732,0,0,0-.2-1.724,1.478,1.478,0,0,0-1.158-.717,1.517,1.517,0,0,0-1.343.37,2.761,2.761,0,0,0-.645,1.616l-.563,4.138q-.283,2.084,1.4,2.313A1.516,1.516,0,0,0,183.367,387.178Z" transform="translate(-102.507 -215.86)" fill="none" stroke="#000" stroke-miterlimit="10" stroke-width="1"/>
    <path id="Path_165" data-name="Path 165" d="M206.444,379.909l-.134,10.217-1.08-.015.1-7.847-2.174,5.451-.711-.009-2.032-5.462-.1,7.8-1.081-.015.134-10.217,1.081.014,2.39,6.34,2.526-6.276Z" transform="translate(-113.746 -216.846)" fill="#241f20"/>
    <path id="Path_166" data-name="Path 166" d="M206.444,379.909l-.134,10.217-1.08-.015.1-7.847-2.174,5.451-.711-.009-2.032-5.462-.1,7.8-1.081-.015.134-10.217,1.081.014,2.39,6.34,2.526-6.276Z" transform="translate(-113.746 -216.846)" fill="none" stroke="#000" stroke-miterlimit="10" stroke-width="1"/>
    <path id="Path_167" data-name="Path 167" d="M222.369,379.849l.362,3.55,2.975-.3.1.973-2.976.3.38,3.728,3.462-.353.1.958-4.523.46L221.211,379l4.523-.46.1.958Z" transform="translate(-126.294 -216.116)" fill="#241f20"/>
    <path id="Path_168" data-name="Path 168" d="M222.369,379.849l.362,3.55,2.975-.3.1.973-2.976.3.38,3.728,3.462-.353.1.958-4.523.46L221.211,379l4.523-.46.1.958Z" transform="translate(-126.294 -216.116)" fill="none" stroke="#000" stroke-miterlimit="10" stroke-width="1"/>
    <path id="Path_169" data-name="Path 169" d="M250.668,381.241a3.041,3.041,0,0,1-.1,2.2,2.621,2.621,0,0,1-1.8,1.2l-2.539.653-2.543-9.9,2.525-.648a2.6,2.6,0,0,1,2.079.146,2.857,2.857,0,0,1,1.095,1.79,2.134,2.134,0,0,1-.745,2.516q1.5.026,2.025,2.048m-5.691-5.188.866,3.371,1.391-.358A1.468,1.468,0,0,0,248.355,377a1.966,1.966,0,0,0-.7-1.218,1.576,1.576,0,0,0-1.27-.094Zm4.6,6.891a2.215,2.215,0,0,0,.026-1.505q-.479-1.864-2.114-1.444l-1.406.361.958,3.729,1.405-.361a1.6,1.6,0,0,0,1.13-.78" transform="translate(-139.128 -213.868)" fill="#241f20"/>
    <path id="Path_170" data-name="Path 170" d="M250.668,381.241a3.041,3.041,0,0,1-.1,2.2,2.621,2.621,0,0,1-1.8,1.2l-2.539.653-2.543-9.9,2.525-.648a2.6,2.6,0,0,1,2.079.146,2.857,2.857,0,0,1,1.095,1.79,2.134,2.134,0,0,1-.745,2.516Q250.148,379.219,250.668,381.241Zm-5.691-5.188.866,3.371,1.391-.358A1.468,1.468,0,0,0,248.355,377a1.966,1.966,0,0,0-.7-1.218,1.576,1.576,0,0,0-1.27-.094Zm4.6,6.891a2.215,2.215,0,0,0,.026-1.505q-.479-1.864-2.114-1.444l-1.406.361.958,3.729,1.405-.361A1.6,1.6,0,0,0,249.576,382.943Z" transform="translate(-139.128 -213.868)" fill="none" stroke="#000" stroke-miterlimit="10" stroke-width="1"/>
    <path id="Path_171" data-name="Path 171" d="M265.105,378.248a2.411,2.411,0,0,1-1.227-.564,2.92,2.92,0,0,1-.822-1.209l-2.7-7.119,1.011-.382,2.674,7.063a1.931,1.931,0,0,0,.869,1.1,1.672,1.672,0,0,0,2.172-.83,1.933,1.933,0,0,0-.078-1.4l-2.674-7.063,1.011-.383,2.7,7.119a2.689,2.689,0,0,1,.007,2.111,2.588,2.588,0,0,1-1.535,1.381,2.77,2.77,0,0,1-1.409.169" transform="translate(-148.646 -209.796)" fill="#241f20"/>
    <path id="Path_172" data-name="Path 172" d="M265.105,378.248a2.411,2.411,0,0,1-1.227-.564,2.92,2.92,0,0,1-.822-1.209l-2.7-7.119,1.011-.382,2.674,7.063a1.931,1.931,0,0,0,.869,1.1,1.672,1.672,0,0,0,2.172-.83,1.933,1.933,0,0,0-.078-1.4l-2.674-7.063,1.011-.383,2.7,7.119a2.689,2.689,0,0,1,.007,2.111,2.588,2.588,0,0,1-1.535,1.381A2.77,2.77,0,0,1,265.105,378.248Z" transform="translate(-148.646 -209.796)" fill="none" stroke="#000" stroke-miterlimit="10" stroke-width="1"/>
    <path id="Path_173" data-name="Path 173" d="M280.839,366.617l1.9,3.8-.953.478-1.905-3.8-4.674-4.333,1.059-.531,3.513,3.473-.68-4.893,1.059-.532Z" transform="translate(-157.125 -205.692)" fill="#241f20"/>
    <path id="Path_174" data-name="Path 174" d="M280.839,366.617l1.9,3.8-.953.478-1.905-3.8-4.674-4.333,1.059-.531,3.513,3.473-.68-4.893,1.059-.532Z" transform="translate(-157.125 -205.692)" fill="none" stroke="#000" stroke-miterlimit="10" stroke-width="1"/>
    <path id="Path_175" data-name="Path 175" d="M291.264,355.493l1.894,3.025,2.535-1.587.519.828-2.535,1.587,1.988,3.176,2.949-1.847.511.816-3.853,2.412-5.422-8.66,3.853-2.413.511.816Z" transform="translate(-165.482 -201.439)" fill="#241f20"/>
    <path id="Path_176" data-name="Path 176" d="M291.264,355.493l1.894,3.025,2.535-1.587.519.828-2.535,1.587,1.988,3.176,2.949-1.847.511.816-3.853,2.412-5.422-8.66,3.853-2.413.511.816Z" transform="translate(-165.482 -201.439)" fill="none" stroke="#000" stroke-miterlimit="10" stroke-width="1"/>
    <path id="Path_177" data-name="Path 177" d="M308.195,350.027l-1.3,1.009,2.747,3.53-.853.664-6.275-8.064,2.127-1.655a2.462,2.462,0,0,1,1.985-.644,3.268,3.268,0,0,1,1.822,1.341q1.345,1.73.463,3.055l4.273,2.549-.912.709Zm-1.879.261,1.262-.982a1.344,1.344,0,0,0,.611-1.084,2.353,2.353,0,0,0-.592-1.351,2.461,2.461,0,0,0-1.161-.926,1.337,1.337,0,0,0-1.213.334l-1.262.982Z" transform="translate(-172.713 -196.872)" fill="#241f20"/>
    <path id="Path_178" data-name="Path 178" d="M308.195,350.027l-1.3,1.009,2.747,3.53-.853.664-6.275-8.064,2.127-1.655a2.462,2.462,0,0,1,1.985-.644,3.268,3.268,0,0,1,1.822,1.341q1.345,1.73.463,3.055l4.273,2.549-.912.709Zm-1.879.261,1.262-.982a1.344,1.344,0,0,0,.611-1.084,2.353,2.353,0,0,0-.592-1.351,2.461,2.461,0,0,0-1.161-.926,1.337,1.337,0,0,0-1.213.334l-1.262.982Z" transform="translate(-172.713 -196.872)" fill="none" stroke="#000" stroke-miterlimit="10" stroke-width="1"/>
    <path id="Path_179" data-name="Path 179" d="M323.569,342.965a3.212,3.212,0,0,1-2.011-1.06l.753-.733a2.3,2.3,0,0,0,1.372.742,1.571,1.571,0,0,0,1.18-.517,1.5,1.5,0,0,0,.54-1.155,2.073,2.073,0,0,0-.684-1.266,1.874,1.874,0,0,0-1.107-.638,3.255,3.255,0,0,0-1.444.309l-.59.243a3.6,3.6,0,0,1-1.795.32,2.581,2.581,0,0,1-1.528-.849,2.765,2.765,0,0,1-.879-1.913,2.539,2.539,0,0,1,.87-1.878,2.487,2.487,0,0,1,1.807-.8,3.02,3.02,0,0,1,1.971.966l-.732.712q-1.323-1.213-2.385-.181a1.445,1.445,0,0,0-.518,1.124,1.858,1.858,0,0,0,.6,1.171,1.72,1.72,0,0,0,1.045.575,2.906,2.906,0,0,0,1.37-.3l.6-.253a3.581,3.581,0,0,1,1.837-.319,2.857,2.857,0,0,1,1.641.944,2.9,2.9,0,0,1,.951,1.977,2.644,2.644,0,0,1-.933,1.929,2.539,2.539,0,0,1-1.934.847" transform="translate(-181.198 -190.558)" fill="#241f20"/>
    <path id="Path_180" data-name="Path 180" d="M323.569,342.965a3.212,3.212,0,0,1-2.011-1.06l.753-.733a2.3,2.3,0,0,0,1.372.742,1.571,1.571,0,0,0,1.18-.517,1.5,1.5,0,0,0,.54-1.155,2.073,2.073,0,0,0-.684-1.266,1.874,1.874,0,0,0-1.107-.638,3.255,3.255,0,0,0-1.444.309l-.59.243a3.6,3.6,0,0,1-1.795.32,2.581,2.581,0,0,1-1.528-.849,2.765,2.765,0,0,1-.879-1.913,2.539,2.539,0,0,1,.87-1.878,2.487,2.487,0,0,1,1.807-.8,3.02,3.02,0,0,1,1.971.966l-.732.712q-1.323-1.213-2.385-.181a1.445,1.445,0,0,0-.518,1.124,1.858,1.858,0,0,0,.6,1.171,1.72,1.72,0,0,0,1.045.575,2.906,2.906,0,0,0,1.37-.3l.6-.253a3.581,3.581,0,0,1,1.837-.319,2.857,2.857,0,0,1,1.641.944,2.9,2.9,0,0,1,.951,1.977,2.644,2.644,0,0,1-.933,1.929A2.539,2.539,0,0,1,323.569,342.965Z" transform="translate(-181.198 -190.558)" fill="none" stroke="#000" stroke-miterlimit="10" stroke-width="1"/>
    <path id="Path_181" data-name="Path 181" d="M145.268,131.8a5.007,5.007,0,0,1-5.311-5v-3.983H143.8v3.575a1.33,1.33,0,0,0,1.259,1.464c.817,0,1.192-.545,1.192-1.464,0-2.52-1.533-4.869-3-7.524-1.5-2.792-3.03-5.89-3.03-8.682,0-3.711,1.77-6.3,5.14-6.3a4.814,4.814,0,0,1,4.767,5v3.984h-3.847v-3.813c0-.817-.375-1.225-.92-1.225a1.138,1.138,0,0,0-1.123,1.225c0,2.758.92,4.664,2.656,7.932,1.566,2.928,3.37,5.89,3.37,8.511,0,3.473-1.8,6.3-5,6.3" transform="translate(-79.905 -59.309)" fill="#241f20"/>
    <path id="Path_182" data-name="Path 182" d="M172.406,108.829v23.083h-4.188V108.829h-2.792v-4.154h9.6v4.154Z" transform="translate(-94.446 -59.761)" fill="#241f20"/>
    <path id="Path_183" data-name="Path 183" d="M192.435,131.912l-.238-4.6h-1.906l-.375,4.6h-3.779l2.758-27.236h5l2.826,27.236Zm-1.021-18.044-.783,9.294h1.328Z" transform="translate(-106.27 -59.762)" fill="#241f20"/>
    <path id="Path_184" data-name="Path 184" d="M225.054,131.912V113.527L222.3,131.912h-2.758l-2.485-18.385v18.385h-3.779V104.675h6.537l1.532,12.767,1.634-12.767h6.265v27.237Z" transform="translate(-121.763 -59.761)" fill="#241f20"/>
    <path id="Path_185" data-name="Path 185" d="M259.916,120.881h-.953v11.031h-4.188V104.675h5.141a4.281,4.281,0,0,1,4.495,4.63v6.945a4.281,4.281,0,0,1-4.495,4.63m.375-10.963c0-.783-.272-1.089-.715-1.089h-.613v7.932h.613c.442,0,.715-.306.715-1.089Z" transform="translate(-145.457 -59.761)" fill="#241f20"/>
    <path id="Path_186" data-name="Path 186" d="M165.553,202.447h-5.481V175.21h5.481c2.009,0,4.29,1.158,4.29,4.63v17.976c0,3.473-2.281,4.63-4.29,4.63m.375-21.993c0-.783-.272-1.089-.749-1.089h-.919v18.963h.919c.477,0,.749-.306.749-1.089Z" transform="translate(-91.389 -100.031)" fill="#241f20"/>
    <path id="Path_187" data-name="Path 187" d="M191.488,202.786a4.87,4.87,0,0,1-4.835-5V175.209h4.018v22.47a.828.828,0,0,0,.817.817.807.807,0,0,0,.817-.817v-22.47h3.847v22.573a4.712,4.712,0,0,1-4.664,5" transform="translate(-106.564 -100.031)" fill="#241f20"/>
    <path id="Path_188" data-name="Path 188" d="M218.311,179.363v23.083h-4.188V179.363h-2.792V175.21h9.6v4.154Z" transform="translate(-120.654 -100.031)" fill="#241f20"/>
    <path id="Path_189" data-name="Path 189" d="M242.162,190.36v12.086H238.11V190.36l-3.37-15.15h4.051l1.566,8.75,1.43-8.75h3.848Z" transform="translate(-134.018 -100.031)" fill="#241f20"/>
    <path id="Path_190" data-name="Path 190" d="M129.954,272.869a5.007,5.007,0,0,1-5.312-5v-3.983h3.848v3.575a1.33,1.33,0,0,0,1.259,1.464c.817,0,1.192-.545,1.192-1.464,0-2.52-1.532-4.869-3-7.524-1.5-2.792-3.03-5.89-3.03-8.682,0-3.711,1.771-6.3,5.141-6.3a4.814,4.814,0,0,1,4.767,5v3.984h-3.847v-3.813c0-.817-.375-1.225-.92-1.225a1.138,1.138,0,0,0-1.123,1.225c0,2.758.92,4.664,2.656,7.932,1.566,2.928,3.37,5.89,3.37,8.511,0,3.473-1.8,6.3-5,6.3" transform="translate(-71.161 -139.848)" fill="#241f20"/>
    <path id="Path_191" data-name="Path 191" d="M156.173,272.981l-.238-4.6h-1.906l-.375,4.6h-3.779l2.758-27.237h5l2.826,27.237Zm-1.021-18.044-.783,9.294H155.7Z" transform="translate(-85.567 -140.301)" fill="#241f20"/>
    <path id="Path_192" data-name="Path 192" d="M180.729,272.98h-3.881l-3.4-27.237H177.6l1.294,15.9,1.464-15.9h3.813Z" transform="translate(-99.023 -140.3)" fill="#241f20"/>
    <rect id="Rectangle_36" data-name="Rectangle 36" width="4.188" height="27.237" transform="translate(86.064 105.443)" fill="#241f20"/>
    <path id="Path_193" data-name="Path 193" d="M221.367,272.98l-3-14.538V272.98h-3.507V245.744h4.868l2.349,14.776V245.744h3.506V272.98Z" transform="translate(-122.671 -140.3)" fill="#241f20"/>
    <path id="Path_194" data-name="Path 194" d="M251.214,272.528l-.341-.545a4.124,4.124,0,0,1-2.689.885c-2.656,0-4.358-1.94-4.358-5V249.956a4.837,4.837,0,1,1,9.669,0v5.924h-4.017v-5.822a.817.817,0,0,0-1.634,0V268.1a.817.817,0,1,0,1.634,0v-5.277h-.817v-3.609h5v13.312Z" transform="translate(-139.206 -139.848)" fill="#241f20"/>
    <path id="Path_195" data-name="Path 195" d="M274.132,272.869a5.007,5.007,0,0,1-5.312-5v-3.983h3.848v3.575a1.33,1.33,0,0,0,1.259,1.464c.817,0,1.192-.545,1.192-1.464,0-2.52-1.532-4.869-3-7.524-1.5-2.792-3.03-5.89-3.03-8.682,0-3.711,1.771-6.3,5.141-6.3a4.814,4.814,0,0,1,4.767,5v3.984h-3.847v-3.813c0-.817-.375-1.225-.92-1.225a1.138,1.138,0,0,0-1.123,1.225c0,2.758.919,4.664,2.656,7.932,1.566,2.928,3.37,5.89,3.37,8.511,0,3.473-1.8,6.3-5,6.3" transform="translate(-153.475 -139.848)" fill="#241f20"/>
  </g>
</svg>
