<svg xmlns="http://www.w3.org/2000/svg" width="193.212" height="277.181" viewBox="0 0 193.212 277.181">
  <path id="Path_90" data-name="Path 90" d="M334.59,576.291,321.952,699.385h-22.68l-10.389-67.52-10.389,67.52h-22.68L243.177,576.291h24.065l5.887,70.29,6.925-46.053h17.659l6.925,46.053,5.887-70.29Zm42.069,36.183c0-7.445,4.849-14.889,14.371-14.889s14.37,7.444,14.37,14.889v50.9c0,7.617-4.676,14.888-14.37,14.888s-14.371-7.272-14.371-14.888v-50.9m54.191.172c0-20.6-14.891-38.952-39.819-38.952s-39.821,18.351-39.821,38.952V663.03c0,20.948,14.716,39.126,39.821,39.126s39.819-18.178,39.819-39.126V612.647M306.37,727.781,288.883,805.69l-17.831-77.909H244.39l31.856,123.094H301l32.375-123.094ZM382.719,805h16.446l-8.138-36.7Zm21.814-77.216,31.856,123.094H409.554l-5.2-23.026H377.7l-5.193,23.026H345.843l32.028-123.094Z" transform="translate(-243.177 -573.695)" fill="#fff"/>
</svg>
